<svg width="29" height="25" viewBox="0 0 29 25" fill="none" xmlns="http://www.w3.org/2000/svg">
<path d="M20.2731 8.05556C20.0059 7.42804 19.5179 6.88107 18.8718 6.48504C18.2258 6.08901 17.4514 5.86203 16.6481 5.83333H11.2778C10.2095 5.83333 9.18506 6.18452 8.42971 6.80964C7.67435 7.43477 7.25 8.28261 7.25 9.16667C7.25 10.0507 7.67435 10.8986 8.42971 11.5237C9.18506 12.1488 10.2095 12.5 11.2778 12.5H16.6481C17.7164 12.5 18.7409 12.8512 19.4962 13.4763C20.2516 14.1014 20.6759 14.9493 20.6759 15.8333C20.6759 16.7174 20.2516 17.5652 19.4962 18.1904C18.7409 18.8155 17.7164 19.1667 16.6481 19.1667H11.2778C10.4746 19.138 9.70011 18.911 9.05408 18.515C8.40805 18.1189 7.92002 17.572 7.65278 16.9444M13.963 2.5V5.83333M13.963 19.1667V22.5" stroke="white" stroke-width="2" stroke-linecap="round" stroke-linejoin="round"/>
</svg>
